<?xml version="1.0" encoding="UTF-8" standalone="no"?>
<!-- Created with Inkscape (http://www.inkscape.org/) -->

<svg
   xmlns:dc="http://purl.org/dc/elements/1.1/"
   xmlns:cc="http://creativecommons.org/ns#"
   xmlns:rdf="http://www.w3.org/1999/02/22-rdf-syntax-ns#"
   xmlns:svg="http://www.w3.org/2000/svg"
   xmlns="http://www.w3.org/2000/svg"
   xmlns:xlink="http://www.w3.org/1999/xlink"
   version="1.1"
   width="540"
   height="540"
   id="svg3027">
  <defs
     id="defs3029">
    <linearGradient
       x1="0"
       y1="0"
       x2="1"
       y2="0"
       id="grad3">
      <stop
         id="stop3196"
         style="stop-color:#a287cc;stop-opacity:1"
         offset="0" />
      <stop
         id="stop3198"
         style="stop-color:#381b63;stop-opacity:1"
         offset="1" />
    </linearGradient>
    <linearGradient
       x1="0"
       y1="0"
       x2="1"
       y2="0"
       id="grad2">
      <stop
         id="stop3191"
         style="stop-color:#5b4c73;stop-opacity:1"
         offset="0" />
      <stop
         id="stop3193"
         style="stop-color:#381b63;stop-opacity:1"
         offset="1" />
    </linearGradient>
    <linearGradient
       x1="8.0000086"
       y1="8.0000029"
       x2="208"
       y2="8.0000029"
       id="grad1"
       gradientUnits="userSpaceOnUse">
      <stop
         id="stop3186"
         style="stop-color:#563d7c;stop-opacity:1"
         offset="0" />
      <stop
         id="stop3188"
         style="stop-color:#6f5499;stop-opacity:1"
         offset="1" />
    </linearGradient>
    <linearGradient
       x1="0"
       y1="0"
       x2="1"
       y2="0"
       id="grad3-6">
      <stop
         id="stop3297"
         style="stop-color:#a287cc;stop-opacity:1"
         offset="0" />
      <stop
         id="stop3299"
         style="stop-color:#381b63;stop-opacity:1"
         offset="1" />
    </linearGradient>
    <linearGradient
       x1="0"
       y1="0"
       x2="1"
       y2="0"
       id="grad2-5">
      <stop
         id="stop3292"
         style="stop-color:#5b4c73;stop-opacity:1"
         offset="0" />
      <stop
         id="stop3294"
         style="stop-color:#381b63;stop-opacity:1"
         offset="1" />
    </linearGradient>
    <linearGradient
       x1="0"
       y1="0"
       x2="1"
       y2="0"
       id="grad1-8">
      <stop
         id="stop3287"
         style="stop-color:#563d7c;stop-opacity:1"
         offset="0" />
      <stop
         id="stop3289"
         style="stop-color:#6f5499;stop-opacity:1"
         offset="1" />
    </linearGradient>
    <linearGradient
       x1="263.375"
       y1="26.439003"
       x2="458.37299"
       y2="26.439003"
       id="linearGradient3322"
       xlink:href="#grad1-8"
       gradientUnits="userSpaceOnUse" />
    <linearGradient
       x1="22.204428"
       y1="16.76689"
       x2="243.52364"
       y2="16.76689"
       id="linearGradient3324"
       xlink:href="#grad1-8"
       gradientUnits="userSpaceOnUse"
       gradientTransform="scale(1.015454,0.98478117)" />
    <linearGradient
       x1="48.550068"
       y1="60.247528"
       x2="220.49722"
       y2="60.247528"
       id="linearGradient3326"
       xlink:href="#grad1-8"
       gradientUnits="userSpaceOnUse"
       gradientTransform="scale(1.0124711,0.98768248)" />
    <linearGradient
       x1="104.17855"
       y1="115.56718"
       x2="166.10915"
       y2="115.56718"
       id="linearGradient3328"
       xlink:href="#grad1-8"
       gradientUnits="userSpaceOnUse"
       gradientTransform="scale(1.0010275,0.99897357)" />
    <clipPath
       id="clipPath98">
      <path
         d="m 268.891,221.612 191.998,0 0,-96.027 -191.998,0 0,96.027 z"
         id="path100" />
    </clipPath>
    <clipPath
       id="clipPath62">
      <path
         d="m 0,249.5 481.242,0 0,-249.5 L 0,0 0,249.5 z"
         id="path64" />
    </clipPath>
    <clipPath
       id="clipPath42">
      <path
         d="m 25.8911,223.562 191.9979,0 0,-191.9536 -191.9979,0 0,191.9536 z"
         id="path44" />
    </clipPath>
    <clipPath
       id="clipPath26">
      <path
         d="m 25.8906,223.612 191.9984,0 0,-96.027 -191.9984,0 0,96.027 z"
         id="path28" />
    </clipPath>
    <clipPath
       id="clipPath18">
      <path
         d="m 0,249.5 481.242,0 0,-249.5 L 0,0 0,249.5 z"
         id="path20" />
    </clipPath>
    <defs
       id="defs3421">
      <linearGradient
         x1="0"
         y1="0"
         x2="1"
         y2="0"
         id="grad1-0">
        <stop
           id="stop3424"
           style="stop-color:#563d7c;stop-opacity:1"
           offset="0" />
        <stop
           id="stop3426"
           style="stop-color:#6f5499;stop-opacity:1"
           offset="1" />
      </linearGradient>
      <linearGradient
         x1="0"
         y1="0"
         x2="1"
         y2="0"
         id="grad2-9">
        <stop
           id="stop3429"
           style="stop-color:#5b4c73;stop-opacity:1"
           offset="0" />
        <stop
           id="stop3431"
           style="stop-color:#381b63;stop-opacity:1"
           offset="1" />
      </linearGradient>
      <linearGradient
         x1="0"
         y1="0"
         x2="1"
         y2="0"
         id="grad3-5">
        <stop
           id="stop3434"
           style="stop-color:#a287cc;stop-opacity:1"
           offset="0" />
        <stop
           id="stop3436"
           style="stop-color:#381b63;stop-opacity:1"
           offset="1" />
      </linearGradient>
    </defs>
    <linearGradient
       x1="-97.500504"
       y1="-191.99902"
       x2="97.498497"
       y2="-191.99902"
       id="linearGradient3508"
       xlink:href="#grad1-0"
       gradientUnits="userSpaceOnUse"
       gradientTransform="scale(0.99999487,1.0000051)" />
    <linearGradient
       x1="-163.78983"
       y1="-36.457611"
       x2="1.0882776"
       y2="-36.457611"
       id="linearGradient3510"
       xlink:href="#grad1-0"
       gradientUnits="userSpaceOnUse"
       gradientTransform="scale(0.91531216,1.0925234)" />
    <linearGradient
       x1="-98.193344"
       y1="-47.017952"
       x2="5.8619204"
       y2="-47.017952"
       id="linearGradient3512"
       xlink:href="#grad1-0"
       gradientUnits="userSpaceOnUse"
       gradientTransform="scale(1.0114433,0.98868616)" />
    <linearGradient
       x1="-19.07575"
       y1="-35.151463"
       x2="19.07575"
       y2="-35.151463"
       id="linearGradient3514"
       xlink:href="#grad1-0"
       gradientUnits="userSpaceOnUse"
       gradientTransform="scale(1.0000131,0.99998689)" />
    <linearGradient
       x1="0"
       y1="0"
       x2="1"
       y2="0"
       id="grad3-7">
      <stop
         id="stop3595"
         style="stop-color:#a287cc;stop-opacity:1"
         offset="0" />
      <stop
         id="stop3597"
         style="stop-color:#381b63;stop-opacity:1"
         offset="1" />
    </linearGradient>
    <linearGradient
       x1="0"
       y1="0"
       x2="1"
       y2="0"
       id="grad2-3">
      <stop
         id="stop3590"
         style="stop-color:#5b4c73;stop-opacity:1"
         offset="0" />
      <stop
         id="stop3592"
         style="stop-color:#381b63;stop-opacity:1"
         offset="1" />
    </linearGradient>
    <linearGradient
       x1="0"
       y1="0"
       x2="1"
       y2="0"
       id="grad1-7">
      <stop
         id="stop3585"
         style="stop-color:#563d7c;stop-opacity:1"
         offset="0" />
      <stop
         id="stop3587"
         style="stop-color:#6f5499;stop-opacity:1"
         offset="1" />
    </linearGradient>
    <linearGradient
       x1="10.000003"
       y1="9.9999981"
       x2="260"
       y2="9.9999981"
       id="linearGradient3618"
       xlink:href="#grad1-7"
       gradientUnits="userSpaceOnUse" />
    <linearGradient
       x1="36.4981"
       y1="14.628966"
       x2="254.00603"
       y2="14.628966"
       id="linearGradient3620"
       xlink:href="#grad1-7"
       gradientUnits="userSpaceOnUse"
       gradientTransform="scale(0.93537131,1.0690942)" />
  </defs>
  <metadata
     id="metadata3032">
    <rdf:RDF>
      <cc:Work
         rdf:about="">
        <dc:format>image/svg+xml</dc:format>
        <dc:type
           rdf:resource="http://purl.org/dc/dcmitype/StillImage" />
        <dc:title></dc:title>
      </cc:Work>
    </rdf:RDF>
  </metadata>
  <g
     transform="translate(0,-512.36218)"
     id="layer1">
    <g
       transform="matrix(1.25,0,0,-1.25,-1.0375e-5,782.36218)"
       id="g10">
      <g
         id="g24" />
      <path
         d="m 103.96858,75.669232 c 0.36821,-0.605128 1.45027,-0.619487 2.41951,-0.03179 0.96822,0.586667 1.45643,1.55282 1.09027,2.158974 -0.36821,0.605128 -1.45027,0.620513 -2.41951,0.03282 -0.96822,-0.587693 -1.45643,-1.553846 -1.09027,-2.16 m 9.36409,-4e-6 c -0.36718,-0.605128 -1.44924,-0.619487 -2.41848,-0.03179 -0.96924,0.586667 -1.45643,1.55282 -1.09027,2.158974 0.36718,0.605128 1.45027,0.620513 2.41849,0.03282 0.96924,-0.587693 1.45745,-1.553846 1.09026,-2.16 m -5.33359,19.125636 c -1.12206,0 -2.03489,-0.913846 -2.03489,-2.035897 0,-1.123077 0.91283,-2.036923 2.03489,-2.036923 1.12309,0 2.03489,0.913846 2.03489,2.036923 0,1.122051 -0.9118,2.035897 -2.03489,2.035897 m 0,-5.815384 c -2.0831,0 -3.7785,1.694359 -3.7785,3.779487 0,2.084103 1.6954,3.778461 3.7785,3.778461 2.08412,0 3.78055,-1.694358 3.78055,-3.778461 0,-2.085128 -1.69643,-3.779487 -3.78055,-3.779487 m 2.90762,3.779077 c 0,-1.605128 -1.30155,-2.907692 -2.90772,-2.907692 -1.60412,0 -2.9067,1.302564 -2.9067,2.907692 0,1.605128 1.30258,2.907692 2.9067,2.907692 1.60617,0 2.90772,-1.302564 2.90772,-2.907692 m -2.90762,13.513645 c -1.12206,0 -2.03489,-0.91385 -2.03489,-2.0359 0,-1.12308 0.91283,-2.03692 2.03489,-2.03692 1.12309,0 2.03489,0.91384 2.03489,2.03692 0,1.12205 -0.9118,2.0359 -2.03489,2.0359 m 0,-5.81539 c -2.0831,0 -3.7785,1.69436 -3.7785,3.77949 0,2.0841 1.6954,3.77846 3.7785,3.77846 2.08412,0 3.78055,-1.69436 3.78055,-3.77846 0,-2.08513 -1.69643,-3.77949 -3.78055,-3.77949 m 2.90762,3.77908 c 0,-1.60513 -1.30155,-2.90769 -2.90772,-2.90769 -1.60412,0 -2.9067,1.30256 -2.9067,2.90769 0,1.60513 1.30258,2.90769 2.9067,2.90769 1.60617,0 2.90772,-1.30256 2.90772,-2.90769 m -21.977352,47.48297 c -2.985672,0 -5.916984,-0.12615 -7.135458,-1.04 -0.526159,-0.39487 -2.128227,-1.59692 1.86566,-8.33641 2.364127,-3.98872 4.410302,-6.37231 6.576478,-8.89436 1.380527,-1.6082 2.808233,-3.27077 4.36107,-5.40615 0.900522,-1.23795 1.844121,-2.69436 2.844131,-4.23487 3.133361,-4.83385 7.033921,-10.84821 10.419591,-10.84821 3.05337,0 7.10777,6.57334 10.36626,11.85539 1.45027,2.35282 2.82054,4.57436 4.06979,6.20205 1.74463,2.27487 3.16003,3.91692 4.52927,5.50461 1.94464,2.25334 3.78158,4.38257 6.21032,7.98257 3.01439,4.46564 5.5098,10.95384 5.35698,12.4123 -0.0687,0.0133 -0.17846,0.0267 -0.34462,0.0267 -1.22257,0 -3.5508,-0.65538 -6.49852,-1.48615 -5.70468,-1.60616 -14.32528,-4.03385 -23.6905,-4.03385 -4.98569,0 -9.21343,0.10359 -12.609362,0.18564 -2.440025,0.0595 -4.545688,0.11077 -6.32109,0.11077 m 18.931472,-40.81128 c -4.50158,0 -8.560084,6.25949 -12.141659,11.78359 -0.9836,1.51795 -1.912841,2.94974 -2.780542,4.14461 -1.50463,2.06872 -2.904645,3.69949 -4.258505,5.2759 -2.226689,2.5918 -4.329275,5.04205 -6.784684,9.18462 -3.411317,5.75487 -3.821578,9.15487 -1.332322,11.02256 1.616427,1.21436 4.291326,1.45128 8.36624,1.45128 1.800018,0 3.917988,-0.0513 6.371347,-0.11077 3.385675,-0.0821 7.598025,-0.18564 12.559105,-0.18564 9.08214,0 17.20325,2.28718 23.13459,3.95693 3.22055,0.90769 5.54878,1.56307 7.05443,1.56307 1.08514,0 1.81541,-0.35897 2.17028,-1.06769 1.15078,-2.29641 -2.89541,-10.73846 -5.48211,-14.57026 -2.49746,-3.69948 -4.37235,-5.87384 -6.35698,-8.17538 -1.35079,-1.5641 -2.74567,-3.18359 -4.45441,-5.41128 -1.18565,-1.54667 -2.53028,-3.72513 -3.95286,-6.0318 -3.89029,-6.30769 -7.91393,-12.82974 -12.11192,-12.82974 m 0.13826,79.54325 c -24.685379,0 -38.153209,-4.73538 -38.153209,-7.1682 l 0.01026,-1.31488 c 0.340516,-31.87077 9.242146,-42.86359 16.396065,-51.69538 5.070821,-6.25949 9.450353,-11.66667 9.450353,-22.27282 0,-9.019487 -5.207233,-14.455384 -11.234987,-20.749743 -9.234966,-9.64 -20.725339,-21.636923 -20.725339,-53.021537 l 0,-0.188718 c 0,-3.468718 17.240176,-8.507692 44.256857,-8.507692 27.01669,0 44.25789,5.038974 44.25789,8.507692 l 0,0.188718 c 0,31.221537 -11.78371,43.100512 -21.2515,52.646152 -6.29647,6.346667 -11.73448,11.827692 -11.73448,21.125128 0,10.55487 4.54466,15.95692 9.80625,22.21231 7.44829,8.85436 16.71915,19.87384 17.06582,51.79384 l 0.0103,1.28821 c 0,2.42154 -13.46681,7.15692 -38.15424,7.15692 m 0,-167.995893 c -19.026856,0 -47.333812,3.085128 -47.333812,11.584615 l 0,0.188718 c 0,32.620512 12.471922,45.64205 21.579708,55.149742 5.800059,6.054359 10.380618,10.837948 10.380618,18.621538 0,9.51692 -3.867731,14.29128 -8.763166,20.33538 -7.454435,9.20411 -16.731453,20.65744 -17.083251,53.60411 l -0.01026,1.33128 c 0,8.11589 26.969506,10.25743 41.230163,10.25743 14.26066,0 41.23119,-2.14154 41.23119,-10.24512 l -0.0103,-1.30565 c -0.35897,-33.02769 -10.02369,-44.51487 -17.78787,-53.74666 -5.07595,-6.03282 -9.08419,-10.79692 -9.08419,-20.23077 0,-8.029743 4.78466,-12.853333 10.84216,-18.958974 9.86574,-9.945641 22.14381,-22.324102 22.14381,-54.812306 l 0,-0.188718 c 0,-8.499487 -28.30798,-11.584615 -47.33484,-11.584615 M 67.505847,35.865541 c 1.145652,-1.592821 13.081159,-6.781539 40.801443,-6.781539 27.81157,0 39.36143,5.18359 40.33374,6.747692 -0.0564,23.275897 -18.09864,41.462563 -34.29265,43.238974 -0.91899,0.101538 -2.08413,0.863589 -3.43388,1.746666 -0.88822,0.582564 -2.37439,1.555898 -2.84106,1.556923 -0.44513,-0.01949 -1.85951,-0.968205 -2.70464,-1.534359 -1.32104,-0.888205 -2.46259,-1.653333 -3.36004,-1.747692 C 85.37885,77.350668 67.576617,59.575284 67.505847,35.865541 M 108.30729,27.03272 c -28.533626,0 -42.852746,5.570257 -42.852746,8.688205 0,24.888205 18.789935,43.574358 36.340886,45.411281 0.39385,0.0441 1.66976,0.899487 2.43182,1.411282 1.74463,1.170256 2.87387,1.882051 3.84619,1.882051 1.00411,0 2.1672,-0.714871 3.96517,-1.891282 0.83693,-0.548718 2.10258,-1.377436 2.53336,-1.424615 17.08428,-1.874872 36.12037,-20.975384 36.12037,-45.388717 0,-3.551795 -15.09349,-8.688205 -42.38505,-8.688205 m -0.30626,177.89035 c -53.443623,0 -96.924067,-43.47999 -96.924067,-96.92307 0,-53.443075 43.480444,-96.923074 96.924067,-96.923074 53.4426,0 96.92201,43.479999 96.92201,96.923074 0,53.44308 -43.47941,96.92307 -96.92201,96.92307 m 0,-196.9230672 C 52.859954,8.0000028 8.0000083,52.859489 8.0000083,108 c 0,55.14051 44.8599457,100 100.0010217,100 C 163.14108,208 208,163.14051 208,108 208,52.859489 163.14108,8.0000028 108.00103,8.0000028"
         id="path140"
         style="fill:url(#grad1);fill-opacity:1;fill-rule:nonzero;stroke:none" />
    </g>
    <g
       transform="translate(269.99804,512.61411)"
       id="g3316">
      <circle
         cx="360.87399"
         cy="123.938"
         r="95.999001"
         transform="matrix(1.2820644,0,0,1.2794605,-327.6637,-23.57378)"
         id="mEmotionalCircle"
         style="fill:none;stroke:url(#linearGradient3322);stroke-width:3;stroke-miterlimit:10" />
      <path
         d="m 140.45006,20.993668 c -0.14359,0 -0.29102,-0.03199 -0.42821,-0.101078 -1.58463,-0.790706 -2.1372,-0.598787 -2.96926,-0.30707 -0.52051,0.181683 -1.16668,0.408148 -2.05258,0.408148 -0.94488,0 -1.62438,-0.244377 -2.22182,-0.460606 -0.87693,-0.317306 -1.45514,-0.527138 -2.85516,0.06525 -0.49103,0.205993 -1.05257,-0.02303 -1.25898,-0.510505 -0.2077,-0.487475 0.0218,-1.050437 0.51026,-1.25771 2.09489,-0.882828 3.24234,-0.469562 4.25773,-0.102357 0.51411,0.186802 0.95899,0.346734 1.56797,0.346734 0.5577,0 0.95514,-0.138182 1.4154,-0.299394 1.00898,-0.351851 2.15258,-0.753602 4.46543,0.400471 0.47564,0.236701 0.66795,0.813737 0.43077,1.287138 -0.16795,0.337777 -0.50898,0.530976 -0.86155,0.530976 z m -19.46943,9.685516 c -0.17692,0.585993 -0.34487,1.178383 -0.55898,1.740066 l -0.0449,-0.75872 c 2.15643,1.251312 4.62697,1.998517 7.03084,2.447608 1.20899,0.241818 2.4308,0.417104 3.66927,0.493872 1.2295,0.135623 2.47567,0.184242 3.72824,0.16505 1.30386,0.03838 2.48721,0.01024 3.7603,-0.0998 1.25386,-0.04478 2.49874,-0.184242 3.74106,-0.367205 2.47182,-0.340336 5.018,-0.894343 7.39239,-1.819393 l -0.16026,0.78303 c -0.15513,-0.587272 -0.26026,-1.200134 -0.37821,-1.807878 l -0.008,-0.03582 c -0.0128,-0.06781 0.032,-0.133063 0.1,-0.147137 0.0551,-0.01024 0.10897,0.01791 0.13333,0.06397 l 0.83719,1.568618 c 0.0333,0.05758 0.0154,0.134343 -0.0359,0.175286 -2.20258,1.617238 -4.76287,2.598584 -7.37059,3.280537 -2.61925,0.666599 -5.32569,0.963434 -8.02828,0.964713 -2.69875,-0.03838 -5.4116,-0.376161 -7.9988,-1.179662 -2.56798,-0.815017 -5.07954,-2.015151 -7.00007,-3.982961 -0.0449,-0.04478 -0.05,-0.113872 -0.0154,-0.163771 l 0.004,-0.0064 0.98847,-1.456026 c 0.0397,-0.0563 0.11795,-0.07165 0.17564,-0.03327 0.0449,0.03071 0.0654,0.08828 0.05,0.139461 l -0.0115,0.03582 z m 56.1275,5.479929 c 1.51797,3.554341 5.12313,13.984503 3.60517,19.482345 -1.87054,6.778582 -7.99111,13.082484 -8.05265,13.145177 l 2.74746,2.686867 c 0.27949,-0.285319 6.87443,-7.061342 9.0142,-14.812314 2.18464,-7.916022 -3.53209,-21.436081 -3.77568,-22.008 l -3.5385,1.505925 z m -4.98082,8.014541 c -0.13333,1.051716 0.61283,2.011312 1.66668,2.145655 0.0821,0.01024 0.16411,0.01535 0.2436,0.01535 0.95385,0 1.78335,-0.708822 1.90514,-1.678653 0.38591,-3.043836 4.32313,-8.010702 8.48984,-13.268005 1.64488,-2.075285 3.39234,-4.284913 5.05389,-6.544441 -1.16924,-0.577036 -2.34617,-1.141278 -3.53593,-1.681211 -1.46412,1.962693 -3.00772,3.917708 -4.53466,5.843296 -4.7039,5.936697 -8.76804,11.063495 -9.28856,15.168005 z M 97.120134,35.405511 c 0,-1.060673 -0.861548,-1.919191 -1.923097,-1.919191 -1.062831,0 -1.923097,0.858518 -1.923097,1.919191 0,0.125387 -0.05256,12.621878 -4.57697,19.713927 -5.438517,8.526325 -0.267951,17.734602 -0.04487,18.122279 0.35385,0.619259 1.002575,0.965993 1.67053,0.965993 0.32308,0 0.652571,-0.08189 0.953856,-0.254613 0.921804,-0.527138 1.239756,-1.699124 0.711546,-2.619056 -0.04231,-0.07549 -4.248762,-7.562891 -0.04487,-14.153392 5.116719,-8.024776 5.176977,-21.217293 5.176977,-21.775138 z m -15.232208,6.445922 c 5.829547,7.528345 9.059067,9.268412 10.798829,9.268412 0.137181,0 0.266669,-0.01151 0.387183,-0.03071 l -0.630775,-3.785924 c 0.261541,-0.0435 0.41026,-0.01279 0.41026,-0.01279 -0.02308,-0.0051 -2.335921,-0.573199 -7.920594,-7.785518 -4.028246,-5.199727 -3.03721,-10.712922 -0.585903,-16.48073 -1.667966,0.752322 -3.312855,1.545588 -4.941076,2.369561 -1.646171,5.441545 -1.708992,11.044303 2.482076,16.4577 z m 54.382604,16.218441 c 18.24634,0 33.54394,-17.019383 37.36705,-39.714454 -1.22437,-0.40303 -2.459,-0.788147 -3.70003,-1.152794 -3.35004,21.137967 -17.17069,37.028867 -33.66702,37.028867 -16.67709,0 -30.6221,-16.236354 -33.77726,-37.719775 -1.25002,0.340336 -2.49106,0.694747 -3.725684,1.073467 3.601324,23.081467 19.047634,40.484689 37.502944,40.484689 z M 114.90237,46.677558 c -1.28848,5.766528 -3.83081,12.088343 -8.81035,16.228677 C 101.28941,66.90199 91.797002,70.759563 81.748181,74.84616 67.049313,80.82252 51.85044,87.001035 47.208084,95.240761 41.929825,104.60769 29.600212,155.0146 22.547576,184.9834 c 0.839752,1.87953 1.724376,3.73347 2.652591,5.56181 6.757761,-28.88126 20.084821,-84.05927 25.360516,-93.422363 3.983374,-7.071578 19.207889,-13.260329 32.640077,-18.721066 10.332157,-4.201748 20.09251,-8.169355 25.35282,-12.54511 5.15518,-4.287472 8.01932,-10.400735 9.59754,-16.212044 m 33.41444,1.94478 c 1.67181,5.175418 4.43723,10.395616 8.99753,14.186658 5.26159,4.375755 15.02195,8.343362 25.35411,12.54511 13.43218,5.460737 28.6567,11.649488 32.64007,18.721066 5.27954,9.370769 19.08097,64.798279 26.0913,93.802369 0.92436,-1.80148 1.80258,-3.63111 2.63848,-5.48249 -7.30648,-30.07628 -20.09251,-80.82352 -25.3759,-90.201965 -4.64235,-8.238447 -19.84251,-14.41952 -34.54138,-20.394601 -10.04882,-4.085317 -19.53994,-7.94417 -24.34383,-11.939925 -4.19492,-3.489089 -6.66033,-8.53784 -8.10137,-13.498308 m 75.20718,161.664949 c -0.39872,-1.12208 -0.52821,-2.23777 -0.64488,-3.22296 -0.0808,-0.69858 -0.15897,-1.35879 -0.31795,-1.9499 -0.38077,-1.40868 -1.07052,-2.90821 -1.73848,-4.35912 -0.37436,-0.81501 -0.74488,-1.62235 -1.07052,-2.41946 -1.94361,-4.76087 -3.85902,-9.53454 -5.77314,-14.30948 -1.09232,-2.72525 -2.35387,-5.47993 -3.68978,-8.39838 -2.92952,-6.39731 -5.95904,-13.0134 -7.277,-19.6346 l 3.77312,-0.74721 c 1.22822,6.1798 4.16286,12.58861 7.00135,18.7876 1.29617,2.83017 2.63593,5.75757 3.76286,8.56599 1.91156,4.76727 3.8244,9.53326 5.76544,14.28901 0.30385,0.74593 0.65258,1.50081 1.00258,2.26465 0.73334,1.59421 1.4936,3.24471 1.95643,4.9643 0.23333,0.86364 0.33077,1.69529 0.42564,2.50135 0.10001,0.8598 0.19488,1.67225 0.45001,2.38875 l -3.62568,1.27946 z m -44.36456,-35.48839 c -0.23974,-4.2734 -0.35128,-10.32781 0.47565,-14.91339 l 3.78594,0.68195 c -0.76283,4.2171 -0.65001,9.94908 -0.42052,14.01649 l -3.84107,0.21495 z m -145.077121,36.71795 -3.648755,-1.21676 c 4.706458,-14.03568 10.084718,-28.06881 15.284771,-41.6426 1.725659,-4.49987 3.448754,-8.99973 5.153899,-13.50727 l 3.598755,1.35495 c -1.705146,4.51266 -3.432086,9.01892 -5.157745,13.5239 -5.188515,13.53413 -10.55139,27.53143 -15.230925,41.48778 z m 44.39148,-35.84152 -3.828244,-0.35697 c 0.432055,-4.61118 0.273079,-9.15454 -0.474364,-13.50855 l 3.791064,-0.6474 c 0.803854,4.68538 0.975651,9.5678 0.511544,14.51292 z m 121.515341,56.76198 c -1.64488,-8.20262 -5.96288,-16.04955 -9.77317,-22.97271 -0.90129,-1.63771 -1.77951,-3.23448 -2.59618,-4.78518 l 3.4026,-1.78613 c 0.8077,1.53024 1.67565,3.10781 2.56541,4.72377 3.94235,7.16626 8.41162,15.28571 10.17318,24.06665 l -3.77184,0.7536 z m -142.396324,1.32041 -3.746192,-0.87515 c 2.2731,-9.6932 4.909024,-19.22134 12.101406,-29.21393 l 3.123108,2.23906 c -6.788531,9.4309 -9.214196,18.19265 -11.478322,27.85002 z"
         id="mEmotionalBody"
         style="fill:url(#linearGradient3324)" />
      <path
         d="M 89.498261,123.74458 C 75.062216,109.33786 69.010872,92.805947 75.721197,86.107972 c 6.710325,-6.696697 23.277161,-0.657643 37.713203,13.749082 2.17567,2.172526 4.22953,4.528006 6.10263,6.987136 l 0,0 c -0.49872,-3.50572 -0.75898,-7.209762 -0.75898,-11.004642 0,-20.374129 7.43469,-36.334119 16.92453,-36.334119 9.48984,0 16.92453,15.95999 16.92453,36.334119 0,3.701479 -0.31795,7.465652 -0.91667,11.127472 l 0,0 c 1.88848,-2.40283 3.99363,-4.77367 6.28211,-7.058787 7.9629,-7.941612 16.92197,-13.674874 24.57974,-15.723291 5.75647,-1.539191 10.29882,-0.854679 13.1386,1.976767 6.70776,6.696696 0.65898,23.229881 -13.77707,37.634051 -1.87822,1.87441 -4.0244,3.72835 -6.12442,5.38269 l 0,0 c 3.47824,-0.48747 7.27443,-0.81246 11.03216,-0.81246 20.4156,0 36.40551,7.42087 36.40551,16.894 0,4.00087 -2.72696,7.68956 -7.8847,10.66046 -6.86802,3.95866 -17.26556,6.22714 -28.52337,6.22714 -5.25903,0 -9.12189,-0.57192 -11.48345,-0.96983 l 0,0 c 2.73977,2.06889 5.28852,4.22989 7.8847,6.82336 7.95777,7.94161 13.7027,16.88248 15.75528,24.52726 l 0,0 c 1.54233,5.74478 0.85642,10.2779 -1.98078,13.10935 -6.71033,6.6967 -23.2746,0.65508 -37.71065,-13.74908 -2.69874,-2.69327 -5.04364,-5.43515 -7.26417,-8.5468 l 0,0 c 0.3859,3.10397 0.5859,6.34485 0.5859,9.65865 0,20.37413 -7.43469,36.33412 -16.9271,36.33412 -9.48984,0 -16.92196,-15.96127 -16.92196,-36.33412 0,-3.0336 0.36026,-6.45488 0.76667,-9.47824 l 0,0 c -0.72052,1.00693 -3.26798,4.91057 -8.44368,10.07319 -14.436041,14.40672 -31.000313,20.44194 -37.713203,13.74396 -2.834644,-2.82888 -3.517984,-7.36201 -1.975661,-13.10423 2.051303,-7.64478 7.794952,-16.58565 15.75529,-24.52982 3.717986,-3.71043 6.85648,-6.03393 8.8065,-7.42087 l 0,0 c -3.402599,0.46956 -6.735966,0.74209 -10.409081,0.74209 -11.252679,0 -21.652786,-2.26849 -28.51824,-6.22714 l 0,0 c -5.162874,-2.97346 -7.889825,-6.66215 -7.889825,-10.66558 0,-9.47057 15.993754,-16.88888 36.405501,-16.88888 3.81927,0 9.856511,0.76256 11.225756,0.91993 -2.250023,-1.71831 -4.939794,-4.07636 -7.288536,-6.42033 z m 71.645609,10.00794 c 6.2757,-2.8468 12.74756,-7.36201 18.07198,-12.67178 13.56936,-13.54053 18.1489,-27.841056 13.7745,-32.206575 -1.78336,-1.781009 -5.12826,-2.129022 -9.42061,-0.982625 -6.92572,1.851379 -15.46683,7.358177 -22.85665,14.72915 -6.00519,5.99683 -10.66806,12.55534 -13.27193,18.62766 l -2.97695,-2.37979 c 2.67182,-6.634 4.31671,-15.10659 4.31671,-23.029012 0,-19.150965 -6.89238,-32.495738 -13.07834,-32.495738 -6.18596,0 -13.07834,13.346053 -13.07834,32.495738 0,8.586462 1.37822,16.613792 3.89876,22.778232 l -2.87183,2.4732 c -2.83592,-6.4101 -7.477,-13.06969 -12.93731,-18.51891 C 97.145775,89.031539 82.816141,84.458747 78.443019,88.822987 c -4.374403,4.365519 0.206413,18.666053 13.7745,32.206583 5.309029,5.29824 11.053961,9.54221 16.519401,12.25211 l -0.35,3.98296 c -6.65007,-2.66639 -14.884772,-4.18384 -22.823315,-4.18384 -19.184812,0 -32.56059,6.87966 -32.56059,13.05178 0.0013,2.51926 2.117971,5.12552 5.966728,7.34155 6.209038,3.57737 16.150165,5.71279 26.595144,5.71279 8.370599,0 16.198883,-1.31145 22.306643,-3.7002 l 0.6141,3.88444 c -6.20262,2.84936 -13.337312,7.79703 -18.598904,13.04666 -7.387255,7.37225 -12.903978,15.89857 -14.761689,22.81022 -1.14873,4.28107 -0.800009,7.61663 0.983343,9.39636 4.375686,4.36552 18.704038,-0.20472 32.27469,-13.74397 6.08211,-6.07232 10.79498,-12.72167 13.38091,-18.85924 l 4.34619,0.0678 c -0.009,0.023 0.009,-0.023 0,0 -2.53592,6.5342 -3.48465,13.20659 -3.48465,20.9115 0,19.14968 6.8911,32.49574 13.07706,32.49574 6.18596,0 13.07962,-13.34734 13.07962,-32.49574 0,-7.48996 -1.05514,-14.54619 -3.00003,-20.31911 l 3.07054,-2.56916 c 2.81285,6.57771 7.56162,13.4612 13.1745,19.0614 13.56552,13.53925 27.899,18.11205 32.27084,13.74909 1.78592,-1.78229 2.13336,-5.12041 0.98463,-9.40148 -1.85515,-6.91165 -7.37187,-15.43797 -14.75913,-22.80766 -5.91673,-5.90727 -12.38218,-10.50565 -18.39506,-13.12855 l 2.31926,-3.17946 c 6.40519,2.36189 14.95399,3.90108 22.39381,3.90108 10.44627,0 20.38996,-2.1367 26.60028,-5.71279 3.84619,-2.21603 5.9616,-4.82229 5.9616,-7.33771 0,-6.17468 -13.37194,-13.05305 -32.55931,-13.05561 -8.60137,0.001 -16.64633,1.37798 -22.82459,3.89339 l -2.87567,-2.34141 z"
         id="mEmotionalPetals"
         style="fill:url(#linearGradient3326)" />
      <path
         d="m 135.28334,177.31559 c -17.09248,0 -30.99775,-13.87703 -30.99775,-30.93351 0,-17.05649 13.90527,-30.93352 30.99775,-30.93352 17.09121,0 30.99648,13.87703 30.99648,30.93352 0,17.05648 -13.90527,30.93351 -30.99648,30.93351 z m 0,-58.02865 c -14.97194,0 -27.15156,12.15488 -27.15156,27.09514 0,14.94026 12.17962,27.09513 27.15156,27.09513 14.97067,0 27.15028,-12.15487 27.15028,-27.09513 0,-14.94026 -12.17961,-27.09514 -27.15028,-27.09514 z"
         id="mEmotionalFlowerCenter"
         style="fill:url(#linearGradient3328)" />
    </g>
    <g
       transform="translate(-1.1e-5,782.36218)"
       id="g3488">
      <g
         transform="matrix(1.2820644,0,0,-1.2820513,-332.8126,294.51397)"
         id="g94">
        <g
           id="g96" />
        <g
           id="g102">
          <g
             clip-path="url(#clipPath98)"
             id="g104"
             style="opacity:0.27999902">
            <g
               transform="translate(364.8911,221.5615)"
               id="g106">
              <path
                 d="m 0,0 c 53.01,0 95.985,-42.968 95.998,-95.977 l 0,0.024 C 95.998,-42.93 53.018,0.05 0,0.05 c -53.02,0 -96,-42.98 -96,-96.003 l 0,-0.024 C -95.987,-42.968 -53.012,0 0,0"
                 id="path108"
                 style="fill:#ffffff;fill-opacity:1;fill-rule:nonzero;stroke:none" />
            </g>
          </g>
        </g>
      </g>
      <g
         transform="matrix(1.2820644,0,0,-1.2820513,135.00129,13.846146)"
         id="physicalCircle">
        <path
           d="m 0,0 c -52.107,0 -94.5,-42.393 -94.5,-94.5 0,-52.107 42.393,-94.5 94.5,-94.5 52.106,0 94.498,42.393 94.498,94.5 C 94.498,-42.393 52.106,0 0,0 m 0,-192 c -53.762,0 -97.5,43.738 -97.5,97.5 C -97.5,-40.738 -53.762,3 0,3 53.761,3 97.498,-40.738 97.498,-94.5 97.498,-148.262 53.761,-192 0,-192"
           id="path112"
           style="fill:url(#linearGradient3508);fill-opacity:1;fill-rule:nonzero;stroke:none" />
      </g>
      <g
         transform="matrix(1.2820644,0,0,-1.2820513,78.925972,228.95653)"
         id="g114" />
      <g
         transform="matrix(1.2820644,0,0,-1.2820513,206.23356,226.98217)"
         id="g118" />
      <g
         transform="matrix(1.2820644,0,0,-1.2820513,42.965604,211.28076)"
         id="g122" />
      <g
         transform="matrix(1.2820644,0,0,-1.2820513,117.35034,12.781915)"
         id="g126" />
      <g
         transform="matrix(1.2820644,0,0,-1.2820513,230.73047,191.18115)"
         id="physicalBody">
        <path
           d="m 0,0 c 1.022,10.217 1.771,22.102 -0.433,32.785 -0.839,4.072 -1.099,9.274 -1.375,14.781 -0.806,16.145 -1.81,36.239 -18.96,40.783 -0.991,0.262 -1.989,0.522 -2.993,0.784 -5.867,1.53 -11.935,3.113 -17.555,5.407 -1.055,0.43 -2.254,0.875 -3.531,1.348 -5.631,2.086 -12.639,4.681 -15.082,9 l -1.488,2.233 c -0.545,0.552 -0.6,3.056 -0.101,4.62 0.585,1.838 1.616,3.563 2.613,5.232 0.537,0.9 1.264,1.68 2.034,2.507 0.582,0.624 1.183,1.27 1.748,2.013 1.34,1.763 2.619,3.294 3.912,4.681 2.527,2.712 4.044,6.281 4.558,10.63 -0.962,0.293 -1.931,0.57 -2.906,0.833 -0.369,-3.947 -1.64,-7.05 -3.846,-9.418 -1.363,-1.46 -2.705,-3.067 -4.107,-4.911 -0.472,-0.622 -0.998,-1.186 -1.554,-1.783 -0.843,-0.905 -1.714,-1.84 -2.415,-3.014 -1.084,-1.815 -2.205,-3.692 -2.896,-5.859 -0.534,-1.677 -1.037,-5.753 0.825,-7.639 l 1.012,-1.601 c 2.982,-5.274 10.561,-8.082 16.65,-10.337 1.244,-0.461 2.412,-0.893 3.44,-1.313 5.804,-2.369 11.97,-3.977 17.933,-5.532 1,-0.261 1.995,-0.52 2.981,-0.782 15.03,-3.982 15.934,-22.072 16.732,-38.032 0.282,-5.625 0.547,-10.938 1.434,-15.236 2.133,-10.349 1.326,-22.474 0.385,-31.881 -0.534,-5.32 0.025,-10.938 0.517,-15.894 l 0.074,-0.737 c 0.058,-0.585 0.087,-1.167 0.121,-1.749 0.938,1.076 1.851,2.176 2.742,3.294 C 0.004,-10.097 -0.485,-4.848 0,0 m -88.435597,139.1514 c 1.545,-1.158 1.605,-3.702 0.867,-5.617 -1.086,-2.818 -2.693,-5.185 -4.523,-6.664 -0.987,-0.796 -1.59,-1.046 -2.09,-0.873 -0.141,0.051 -0.344,0.26 -0.458,0.445 0.645,-0.081 1.263,0.337 1.419,0.985 0.169,0.698 -0.26,1.401 -0.958,1.57 -0.917,0.222 -1.804,-0.006 -2.431,-0.626 -0.607,-0.599 -0.846,-1.437 -0.652,-2.299 0.246,-1.099 1.178,-2.162 2.217,-2.528 0.405,-0.142 0.798,-0.202 1.173,-0.202 1.547,0 2.807,1.017 3.413,1.505 2.942,2.377 4.593,5.877 5.316,7.752 0.912,2.364 0.965,5.569 -0.773,7.703 -1.372,-0.16 -2.734,-0.348 -4.086,-0.565 0.595,-0.082 1.162,-0.283 1.566,-0.586 M -146.4551,-15.677696 c 0.492,4.956 1.051,10.5730004 0.518,15.89400042 -0.942,9.40699998 -1.748,21.53199958 0.384,31.87999958 0.887,4.298 1.153,9.612 1.434,15.237 0.798,15.96 1.702,34.05 16.732,38.032 0.987,0.262 1.981,0.521 2.981,0.782 5.964,1.554 12.13,3.162 17.933,5.532 1.028,0.419 2.196,0.851 3.44,1.312 6.090003,2.256 12.941003,5.177 15.924003,10.450996 0.408,0.721 0.939,1.79 0.25,2.25 -0.875,0.583 -1.84,-1.084 -1.958,-1.292 -0.949,-1.677 -2.763,-2.689 -4.74,-3.917 l -0.593,3.417 c -0.308,1.222 -0.528,2.02 -0.376,2.803 0.135,0.704 -0.003,2.435 -0.708,2.572 -0.705,0.138 -1.073,-0.711 -1.208,-1.416 -0.262,-1.351 0.04,-2.67 0.417,-4.167 0.322,-1.287 0.71,-3.185 0.208,-4.041996 l -0.463,-0.659 c -0.251,-0.123 -0.503,-0.243 -0.759,-0.361 l -1.695,-0.23 c -1.555003,-0.345 -3.787003,-0.414 -5.776003,0.367 -2.037,0.801 -3.576,2.277996 -4.019,3.854996 -0.219,0.778 -0.256,1.64 -0.297,2.553 -0.061,1.362 -0.122,2.771 -0.775,4.154 -0.118,0.251 -0.261,0.499 -0.408,0.749 -0.409,0.696 -0.512,0.945 -0.411,1.254 0.048,0.144 0.229,0.262 0.659,0.516 0.224,0.132 0.473,0.279 0.727,0.465 0.125,0.07 0.237,0.161 0.334,0.269 0.462,0.519 0.474,1.362 -0.025,1.846 -0.361,0.352 -0.906,0.429 -1.371,0.263 -0.296,0.055 -0.892,0.652 -0.933,1.021 -0.038,0.335 0.16,0.702 0.488,1.273 0.43,0.748 1.019,1.773 0.816,3.088 -0.097,0.628 -0.633,1.094 -1.269,1.102 -0.915,0.011 -2.543,1.213 -2.722,2.009 -0.134,0.599 0.822,1.538 1.589,2.293 0.328,0.323 0.645,0.637 0.91,0.939 1.567,1.78 2.619,3.423 3.127,4.882 0.425,1.22 0.502,2.566 0.488,3.864 -0.878,-0.32 -1.749,-0.656 -2.615,-1.001 -0.032,-0.725 -0.121,-1.412 -0.328,-2.009 -0.392,-1.124 -1.299,-2.514 -2.623,-4.019 -0.228,-0.259 -0.502,-0.526 -0.783,-0.802 -1.161,-1.142 -2.752,-2.707 -2.302,-4.715 0.369,-1.651 2.108,-3.138 3.778,-3.748 -0.084,-0.172 -0.191,-0.364 -0.32,-0.588 -0.425,-0.74 -0.953,-1.66 -0.818,-2.858 0.09,-0.806 0.571,-1.671 1.258,-2.319 -0.218,-0.258 -0.407,-0.572 -0.536,-0.961 -0.482,-1.47 0.194,-2.62 0.64,-3.381 0.107,-0.18 0.213,-0.358 0.299,-0.541 0.43,-0.911 0.477,-2.003 0.528,-3.16 0.045,-1.02 0.092,-2.074 0.392,-3.141 0.668,-2.379996 3.657,-5.217996 5.571,-5.571996 0.869,-0.16 2.506,-0.128 2.506,-0.128 -0.1,-0.036 -1.318,-0.487 -1.416,-0.524 -1.166,-0.432 -2.262,-0.842 -3.235,-1.239 -5.62,-2.294 -11.689,-3.876 -17.556,-5.406 -1.004,-0.262 -2.002,-0.522 -2.993,-0.785 -17.15,-4.544 -18.154,-24.637 -18.96,-40.782 -0.276,-5.508 -0.535,-10.709 -1.375,-14.781 -2.203,-10.684 -1.455,-22.568 -0.433,-32.78499958 0.499,-4.98000002 -0.03,-10.38700042 -0.506,-15.17400042 0.895,-1.109 1.813,-2.197 2.755,-3.265 0.035,0.701 0.075,1.402 0.145,2.107 l 0.074,0.737 z m 127.347706,-12.247099 c 0.167,3.351 -0.149,6.391 -0.483,9.609 -0.211,2.041 -0.431,4.152 -0.516,6.357 -0.125,3.2149998 -0.422,6.5739998 -0.71,9.8229998 -0.707,7.983 -2.363,15.6760002 -0.747,23.2440002 0.316,1.478 0.769,3.597 1,5.375 0.314,2.423 0.619,4.667 1.25,7 0.672,2.018 0.754,2.98 1.25,3.75 0,0 0.594,1.329 0.625,1.375 0.467,0.682 1.639,2.53 0.959,3 -0.68,0.47 -1.986,-1.571 -2.459,-2.25 l -2.529,-4.534 c -1.328,-3.971 -2.655,-9.265 -3.775,-13.971 l -0.164,-0.687 c -0.907,-3.778 -1.432,-7.774 -1.942,-11.6380002 -0.215,-1.632 -0.428,-3.247 -0.666,-4.82 -0.422,-2.78400001 -0.501,-5.684 -0.578,-8.487 -0.076,-2.752 -0.147,-5.3519998 -0.514,-7.8339998 -0.207,-1.4 -0.519,-2.844 -0.82,-4.242 -0.788,-3.652 -1.604,-7.428 -0.835,-11.305 l 0.245,-1.222 c 0.682,-3.392 1.375,-6.858 1.305,-10.229 1.007,0.542 2.001,1.105 2.987,1.682 -0.135,3.074 -0.747,6.134 -1.352,9.139 l -0.243,1.213 c -0.646,3.267 0.068,6.581 0.825,10.09 0.312,1.444 0.634,2.938 0.856,4.434 0.393,2.661 0.469,5.4729998 0.545,8.1909998 0.075,2.713 0.151,5.51899999 0.546,8.121 0.19,1.258 0.365,2.545 0.537,3.843 0.146,-3.18 0.427,-6.36200001 0.706,-9.503 0.298,-3.36 0.579,-6.534 0.7,-9.6729998 0.089,-2.303 0.313,-4.463 0.53,-6.551 0.321,-3.101 0.626,-6.029 0.471,-9.152 -0.118,-2.357 0.039,-4.688 0.19,-6.942 0.012,-0.17 0.023,-0.338 0.034,-0.507 0.97,0.641 1.932,1.294 2.877,1.968 -0.11,1.77 -0.193,3.57 -0.105,5.333 m -99.298906,-1.540001 0.245,1.222 c 0.769,3.877 -0.047,7.653 -0.835,11.305 -0.302,1.398 -0.613,2.842 -0.82,4.242 -0.367,2.482 -0.439,5.082 -0.514,7.834 -0.077,2.803 -0.156,5.70300001 -0.578,8.487 -0.238,1.573 -0.451,3.188 -0.666,4.82 -0.51,3.864 -1.035,7.86 -1.942,11.638 l -0.164,0.687 c -1.121,4.706 -2.448,10 -3.775,13.971 l -2.529,4.534 c -0.473,0.679 -1.779,2.72 -2.459,2.25 -0.68,-0.469 0.492,-2.318 0.959,-3 0.031,-0.046 0.625,-1.375 0.625,-1.375 0.496,-0.77 0.578,-1.732 1.25,-3.75 0.631,-2.333 0.935,-4.577 1.25,-7 0.23,-1.778 0.683,-3.897 1,-5.375 1.616,-7.568 -0.04,-15.261 -0.747,-23.244 -0.288,-3.249 -0.585,-6.608 -0.71,-9.823 -0.085,-2.205 -0.305,-4.316 -0.516,-6.357 -0.334,-3.218 -0.65,-6.258 -0.483,-9.609 0.091,-1.829 -0.001,-3.698 -0.118,-5.532 0.946,-0.668 1.907,-1.318 2.879,-1.951 0.015,0.229 0.029,0.458 0.044,0.689 0.152,2.254 0.309,4.585 0.191,6.942 -0.155,3.123 0.149,6.051 0.471,9.152 0.216,2.088 0.441,4.248 0.53,6.551 0.121,3.139 0.402,6.313 0.7,9.673 0.278,3.14100001 0.56,6.323 0.706,9.503 0.172,-1.298 0.347,-2.585 0.537,-3.843 0.395,-2.60199999 0.471,-5.408 0.546,-8.121 0.075,-2.718 0.152,-5.53 0.545,-8.191 0.222,-1.496 0.544,-2.99 0.856,-4.434 0.756,-3.509 1.471,-6.823 0.825,-10.09 l -0.243,-1.213 c -0.616,-3.056 -1.24,-6.169 -1.361,-9.297 0.988,-0.571 1.988,-1.123 2.998,-1.661 -0.092,3.414 0.612,6.928 1.303,10.366"
           id="path132"
           style="fill:url(#linearGradient3510);fill-opacity:1;fill-rule:nonzero;stroke:none" />
      </g>
      <g
         transform="matrix(1.2820644,0,0,-1.2820513,194.86395,139.82525)"
         id="physicalPetals">
        <path
           d="m 0,0 c -3.754,-2.166 -9.765,-3.461 -16.081,-3.461 -4.497,0 -9.666,0.933 -13.538,2.363 l -1.402,-1.925 c 3.635,-1.589 7.544,-4.374 11.121,-7.954 4.465,-4.464 7.799,-9.628 8.921,-13.816 0.696,-2.593 0.486,-4.616 -0.594,-5.694 -2.643,-2.644 -11.309,0.127 -19.509,8.328 -3.393,3.392 -6.264,7.563 -7.965,11.548 l -1.856,-1.557 c 1.175,-3.497 1.814,-7.771 1.814,-12.309 0,-11.599 -4.168,-19.685 -7.907,-19.685 -3.74,0 -7.906,8.086 -7.906,19.685 0,4.667 0.573,8.708 2.106,12.668 l -2.627,0.04 c -1.562,-3.716 -4.412,-7.745 -8.089,-11.424 -8.204,-8.202 -16.866,-10.97 -19.51,-8.326 -1.079,1.078 -1.29,3.099 -0.595,5.692 1.122,4.187 4.458,9.352 8.924,13.818 3.18,3.181 7.493,6.178 11.243,7.904 l -0.371,2.353 c -3.693,-1.446 -8.424,-2.241 -13.485,-2.241 -6.315,0 -12.325,1.293 -16.078,3.46 -2.327,1.343 -3.607,2.922 -3.607,4.448 0,3.738 8.086,7.905 19.683,7.905 4.799,0 9.779,-0.918 13.798,-2.533 l 0.212,2.412 c -3.304,1.643 -6.777,4.214 -9.986,7.423 -8.202,8.202 -10.973,16.866 -8.328,19.51 2.644,2.644 11.306,-0.126 19.509,-8.329 3.301,-3.3 6.107,-7.335 7.821,-11.217 l 1.736,1.498 c -1.523,3.734 -2.356,8.597 -2.356,13.798 0,11.601 4.167,19.685 7.906,19.685 3.74,0 7.907,-8.084 7.907,-19.685 0,-4.8 -0.994,-9.933 -2.61,-13.95 l 1.8,-1.442 c 1.574,3.677 4.393,7.651 8.024,11.284 4.466,4.465 9.63,7.8 13.816,8.921 2.596,0.696 4.618,0.484 5.695,-0.594 2.645,-2.644 -0.123,-11.308 -8.327,-19.509 -3.217,-3.218 -7.131,-5.953 -10.924,-7.677 l 1.738,-1.42 c 3.733,1.524 8.598,2.359 13.797,2.359 C -4.479,12.353 3.604,8.186 3.604,4.445 3.604,2.921 2.324,1.343 0,0 m -16.08,14.679 c -2.273,0 -4.566,-0.198 -6.669,-0.492 1.27,1.001 2.566,2.125 3.703,3.26 8.727,8.726 12.384,18.741 8.329,22.797 -1.717,1.715 -4.463,2.131 -7.943,1.198 -4.63,-1.242 -10.047,-4.714 -14.86,-9.525 -1.383,-1.384 -2.657,-2.821 -3.797,-4.276 0.361,2.218 0.552,4.498 0.552,6.741 0,12.342 -4.494,22.01 -10.231,22.01 -5.737,0 -10.232,-9.668 -10.232,-22.01 0,-2.299 0.158,-4.543 0.459,-6.667 -1.132,1.49 -2.373,2.916 -3.689,4.233 -8.727,8.727 -18.742,12.385 -22.799,8.328 -4.056,-4.057 -0.398,-14.072 8.328,-22.798 1.42,-1.42 3.047,-2.849 4.408,-3.889 -0.829,0.095 -4.478,0.557 -6.787,0.557 -12.34,0 -22.009,-4.494 -22.009,-10.231 0,-2.426 1.648,-4.659 4.77,-6.461 4.151,-2.398 10.438,-3.772 17.241,-3.772 2.221,0 4.235,0.164 6.293,0.449 -1.179,-0.841 -3.076,-2.247 -5.324,-4.495 -4.812,-4.813 -8.285,-10.229 -9.525,-14.86 -0.932,-3.478 -0.52,-6.224 1.194,-7.938 4.058,-4.057 14.072,-0.401 22.8,8.325 3.129,3.128 4.668,5.493 5.103,6.103 -0.244,-1.831 -0.463,-3.905 -0.463,-5.743 0,-12.34 4.494,-22.009 10.231,-22.009 5.738,0 10.232,9.669 10.232,22.009 0,2.008 -0.121,3.972 -0.353,5.852 1.343,-1.885 2.761,-3.545 4.391,-5.178 8.727,-8.724 18.741,-12.385 22.799,-8.329 1.713,1.716 2.129,4.462 1.198,7.943 -1.243,4.63 -4.715,10.046 -9.527,14.857 -1.568,1.571 -3.11,2.881 -4.766,4.134 1.426,-0.24 3.764,-0.587 6.942,-0.587 6.806,0 13.091,1.374 17.244,3.771 3.118,1.801 4.766,4.035 4.766,6.458 0,5.74 -9.666,10.235 -22.009,10.235"
           id="path136"
           style="fill:url(#linearGradient3512);fill-opacity:1;fill-rule:nonzero;stroke:none" />
      </g>
      <g
         transform="matrix(1.2820644,0,0,-1.2820513,134.28769,114.38948)"
         id="physicalFlowerCenter">
        <path
           d="m 0,0 c -8.864,0 -16.076,-7.212 -16.076,-16.076 0,-8.864 7.212,-16.075 16.076,-16.075 8.864,0 16.076,7.211 16.076,16.075 C 16.076,-7.212 8.864,0 0,0 m 0,-35.151 c -10.519,0 -19.076,8.556 -19.076,19.075 C -19.076,-5.558 -10.519,3 0,3 10.519,3 19.076,-5.558 19.076,-16.076 19.076,-26.595 10.519,-35.151 0,-35.151"
           id="path140-8"
           style="fill:url(#linearGradient3514);fill-opacity:1;fill-rule:nonzero;stroke:none" />
      </g>
    </g>
    <g
       transform="translate(270,782.36218)"
       id="g3613">
      <g
         transform="translate(0,20.5)"
         id="Ebene_5"
         style="display:none" />
      <path
         d="M 135.00128,260 C 66.074936,260 10.000003,203.92564 10.000003,135 10.000003,66.074358 66.074936,9.9999978 135.00128,9.9999978 203.92635,9.9999978 260,66.074358 260,135 c 0,68.92564 -56.07365,125 -124.99872,125 z m 0,-246.153848 c -66.804528,0 -121.155084,54.35 -121.155084,121.153848 0,66.80385 54.350556,121.15385 121.155084,121.15385 66.80325,0 121.15252,-54.35 121.15252,-121.15385 0,-66.803848 -54.34799,-121.153848 -121.15252,-121.153848 z"
         id="organsCircle"
         style="fill:url(#linearGradient3618)" />
      <path
         d="m 142.41802,22.04487 c -0.1423,0 -0.29102,-0.03205 -0.4282,-0.101282 -1.58464,-0.792308 -2.13592,-0.6 -2.96927,-0.307693 -0.52051,0.182052 -1.16667,0.408975 -2.0513,0.408975 -0.94616,0 -1.62566,-0.244872 -2.2231,-0.461539 -0.87693,-0.317948 -1.45514,-0.528205 -2.85516,0.06538 -0.49103,0.20641 -1.05129,-0.02308 -1.25898,-0.511539 -0.2077,-0.488461 0.0231,-1.052564 0.51026,-1.260256 2.09617,-0.884615 3.24234,-0.470513 4.25902,-0.102564 0.51282,0.187179 0.95898,0.347436 1.56796,0.347436 0.55642,0 0.95386,-0.138462 1.4154,-0.3 1.00898,-0.352564 2.1513,-0.755128 4.46415,0.401282 0.47564,0.237179 0.66795,0.815385 0.43077,1.289743 -0.16795,0.338462 -0.5077,0.532052 -0.86155,0.532052 z m -19.46814,9.705128 c -0.17565,0.58718 -0.3436,1.180769 -0.55898,1.74359 l -0.0449,-0.760257 c 2.15644,1.253847 4.62697,2.002565 7.03085,2.452565 1.20898,0.242307 2.43079,0.417948 3.67055,0.494871 1.2295,0.135898 2.47438,0.184616 3.72824,0.165385 1.30258,0.03846 2.48592,0.01026 3.75901,-0.1 1.25514,-0.04487 2.49875,-0.184615 3.74107,-0.367949 2.47182,-0.341025 5.018,-0.896154 7.39238,-1.823077 l -0.16026,0.784616 c -0.15513,-0.588462 -0.26026,-1.202564 -0.37821,-1.811539 l -0.008,-0.0359 c -0.0128,-0.06795 0.032,-0.133334 0.1,-0.147436 0.0551,-0.01026 0.11026,0.01795 0.13462,0.0641 l 0.8359,1.571795 c 0.0346,0.05769 0.0154,0.134616 -0.0346,0.175641 -2.20387,1.620513 -4.76287,2.603847 -7.37187,3.28718 -2.61926,0.667949 -5.3257,0.965385 -8.02829,0.966667 -2.69875,-0.03846 -5.41159,-0.376923 -7.99752,-1.182052 -2.56925,-0.816666 -5.08082,-2.01923 -7.00135,-3.991025 -0.0449,-0.04487 -0.05,-0.114103 -0.0154,-0.164103 l 0.005,-0.0064 0.98719,-1.458975 c 0.0397,-0.05641 0.11795,-0.07179 0.17564,-0.03333 0.0449,0.03077 0.0654,0.08846 0.05,0.139744 l -0.0115,0.0359 z m 66.61093,105.660262 c -1.5654,8.46153 -2.72054,16.40897 -2.72054,24.5923 0,5.14103 -0.0385,10.68975 -0.32308,16.44103 -0.11025,2.22564 -0.46539,4.35385 -0.80898,6.40897 l -0.24487,1.49231 c -0.20257,1.26539 -0.52693,4.24872 -0.47565,6.73846 7.2129,-2.64359 13.30911,-7.61794 18.48993,-12.39102 3.85902,-3.55385 3.80902,-5.26923 1.56412,-10.20128 -1.5936,-3.50129 -3.33978,-6.9359 -5.02954,-10.2577 -0.80257,-1.57948 -1.60258,-3.15384 -2.38592,-4.73077 -0.58975,-1.18846 -1.18719,-2.35897 -1.77694,-3.51538 -2.46669,-4.83718 -4.86159,-9.53333 -6.28853,-14.57692 z M 114.02927,45.456409 c -5.37826,-7.128205 -8.41034,-17.152564 -9.48086,-28.474359 0.63205,-0.205129 1.32052,-0.33077 1.90386,-0.514103 0.62052,-0.194872 1.24104,-0.378205 1.85643,-0.571795 1.68335,20.702564 8.8283,36.812821 28.3567,36.812821 20.55534,0 26.77463,-16.242308 28.3785,-37.069231 0.42949,0.128205 0.88206,0.211538 1.26411,0.315384 0.84232,0.228206 1.67053,0.48718 2.50387,0.707693 -1.0077,11.26282 -3.6667,21.262821 -8.78726,28.432051 l -0.041,1.153847 c 0.86026,6.287179 3.52952,16.36282 5.62698,18.251282 2.85644,2.574359 7.12059,3.765385 11.24499,4.916667 2.20258,0.614102 4.47825,1.25 6.53981,2.096154 2.36284,0.970512 5.07825,1.626923 7.95392,2.323076 7.12315,1.723077 15.1976,3.676924 19.08738,11.315385 4.66415,9.158975 9.35522,19.025639 11.00652,30.093589 0.72693,4.87564 1.48976,9.57308 2.29746,14.54616 l 0.23718,1.45641 c 0.53591,3.30384 2.17567,6.74359 3.76158,10.06923 0.57308,1.20128 1.14104,2.3923 1.65643,3.56923 4.19491,9.58077 6.88084,20.09615 7.76674,30.40897 0.70001,8.13975 2.00259,23.28975 -9.88856,27.84231 -2.58849,0.99103 -5.01287,2.28846 -7.58085,3.66154 -2.16412,1.15641 -4.4026,2.35385 -6.77442,3.36923 -3.86671,1.65385 -7.90393,2.71538 -11.8091,3.74359 -1.58463,0.41667 -3.17439,0.83333 -4.75902,1.29359 -3.25132,0.93974 -6.60135,1.74359 -9.9219,2.49615 l -0.041,1.03846 c 0.48205,5.92693 1.42693,11.66411 2.41028,17.63077 0.49359,2.99231 1.00257,6.0859 1.44488,9.18462 0.14872,1.05128 -0.58205,2.02564 -1.63206,2.17564 -0.0923,0.0128 -0.18462,0.0192 -0.27437,0.0192 -0.94103,0 -1.51668,0.95898 -1.65258,0 -0.4359,-3.05897 -1.19104,-7.78205 -1.68078,-10.75513 -0.93719,-5.6923 -1.89618,-11.51666 -2.41157,-17.55769 l -0.041,-0.87051 c -5.14108,1.13846 -10.45524,2.31538 -15.3976,3.85769 -3.11029,0.9718 -6.10903,2.39615 -9.28086,3.90641 -5.6539,2.68846 -11.50012,5.46795 -18.12326,5.54615 -0.10129,0.001 -0.20257,0.001 -0.30257,0.001 -3.04362,0 -5.64878,-0.53334 -8.17316,-1.05 -2.12438,-0.4359 -4.13209,-0.84616 -6.3834,-0.95641 -2.83977,-0.13718 -4.77313,-0.64616 -6.64366,-1.13718 -1.75643,-0.46026 -3.41542,-0.89616 -5.86672,-1.02693 l -0.18847,-0.0103 c -4.69364,-0.24103 -9.59881,-0.90513 -10.386,-4 -0.38334,-1.50129 0.72308,-3.03846 1.75514,-4.13334 -2.33207,-0.52692 -6.060314,-1.41153 -7.191094,-2.22179 -2.907722,-2.08462 -2.356435,-4.25769 -1.983354,-5.09616 0.252567,-0.56794 0.651289,-1.0641 1.137191,-1.48461 -2.564129,-0.87692 -5.742366,-2.12821 -5.10518,-5.17436 0.780777,-3.75641 2.703873,-4.82692 4.494917,-5.02308 -0.107693,-0.33974 -0.189745,-0.68077 -0.241028,-1.01923 -0.180771,-1.18974 0.03462,-2.23974 0.625648,-3.03589 1.703863,-2.29616 4.426968,-1.46795 5.8898,-1.0218 0.28334,0.0859 0.55129,0.1718 0.79104,0.22308 3.74875,0.80256 6.68083,1.38333 10.27574,1.55384 0.61283,0.0282 1.30643,0.0731 2.06156,0.12052 4.88723,0.30641 13.62835,0.85641 16.94761,-2.1359 -0.39103,-0.88846 -2.86157,-2.36667 -4.50774,-3.34744 -2.21669,-1.32436 -4.31158,-2.57692 -5.47569,-4.12564 -1.96925,-2.62179 -3.84491,-7.51025 -1.61669,-9.67692 1.4872,-1.44487 3.68337,-1.03077 6.52571,1.23461 3.92825,3.12949 8.57958,4.72564 13.50399,6.41411 4.39491,1.50769 8.93727,3.06666 13.18731,5.82179 0.6077,0.39487 1.19617,0.78718 1.77438,1.17436 3.17952,2.12821 5.92826,3.96539 9.5924,4.27564 3.14363,0.27051 5.9975,-0.4359 9.02061,-1.18077 1.71027,-0.42179 3.4808,-0.85769 5.35775,-1.1282 0.86795,-0.12564 1.72181,-0.28846 2.56156,-0.48334 -0.20769,-3.18846 0.26411,-7.14871 0.47821,-8.48718 l 0.25,-1.51794 c 0.34103,-2.03847 0.66283,-3.96283 0.76155,-5.96539 0.27949,-5.66795 0.31795,-11.16026 0.31795,-16.25128 0,-10.36795 1.76669,-20.22821 3.90004,-31.12051 0.15385,-0.79103 0.28975,-1.60642 0.42436,-2.43077 0.37437,-2.26282 0.76155,-4.60257 1.5872,-6.76539 0.35641,-0.92949 1.36155,-1.43205 2.32054,-1.16282 0.95898,0.2718 1.55129,1.22821 1.3654,2.20769 -1.98336,10.51154 2.03335,18.38846 6.6834,27.51026 0.59616,1.16923 1.19873,2.35128 1.79489,3.55256 0.77693,1.56667 1.57181,3.12821 2.37053,4.69744 1.70643,3.35769 3.47183,6.83077 5.10134,10.40897 2.68592,5.9 3.00259,9.59231 -2.45772,14.62308 -7.07443,6.51539 -15.80273,13.39103 -26.91053,14.99103 -1.68848,0.24359 -3.36542,0.65769 -4.98595,1.05641 -3.19234,0.78461 -6.49366,1.59743 -10.26677,1.27948 -4.65389,-0.39615 -7.93342,-2.58974 -11.40525,-4.91153 -0.56282,-0.37693 -1.13847,-0.76154 -1.7295,-1.14488 -3.8526,-2.49871 -8.16803,-3.97948 -12.34243,-5.41153 -5.01672,-1.7218 -10.20267,-3.5 -14.65272,-7.04359 -0.52052,-0.41411 -0.9295,-0.68975 -1.23976,-0.8718 0.18334,1.0141 0.77181,2.6218 1.80259,3.99616 0.70898,0.94358 2.65387,2.10641 4.37184,3.13205 2.64233,1.57692 5.14364,3.07179 6.05006,5.09102 0.0551,0.0615 0.11795,0.12693 0.16795,0.18077 0.0846,0.0923 0.15641,0.17051 0.19744,0.21923 0.5359,0.63205 0.60641,1.5359 0.17308,2.24359 -3.65902,5.99744 -14.66682,5.30385 -21.24125,4.88975 -0.7359,-0.0462 -1.41027,-0.0885 -2.00386,-0.11795 -3.88466,-0.18462 -6.19494,-0.96026 -10.12447,-1.8 -0.33462,-0.0718 -1.28462,-0.23975 -1.68206,-0.36026 -0.417958,-0.1282 -1.562841,-0.56154 -1.812844,-0.13846 0.01539,0.56795 0.06539,1.77692 0.891035,2.38205 l 3.962859,1.32692 c 0.45385,0.10129 0.84488,0.19103 1.16796,0.28334 1.68079,0.47436 3.41799,0.81538 5.04621,1.11282 1.74489,0.31795 3.54362,0.49615 5.44621,0.68461 2.56541,0.25513 4.23466,0.29103 6.75776,0.92821 0.8577,0.21666 2.36028,1.31538 2.14489,2.17307 -0.18461,0.72693 -1.62053,1.06667 -2.3372,1.06667 -0.13077,0 -0.88975,-0.18333 -1.02309,-0.21667 -2.29105,-0.5782 -3.40901,-0.51794 -5.85647,-0.76153 -1.88335,-0.18718 -3.83081,-0.38077 -5.70647,-0.7218 -1.70514,-0.31154 -3.53208,-0.66923 -5.34108,-1.18077 -0.27821,-0.0795 -0.61539,-0.15384 -1.00385,-0.24231 l -3.938505,-0.89871 c -0.598724,-0.0141 -1.173089,-0.11282 -1.730787,-0.20898 -1.841045,-0.32179 -2.243613,-0.38846 -2.679515,1.53077 0.04487,0.6141 1.810275,1.34359 2.729515,1.65513 1.841045,0.62179 3.165422,1.28205 5.078262,2.00769 l 0.75898,0.14744 c 3.38337,1.3359 6.4757,1.8641 10.07831,2.24743 0.6859,0.0731 1.41283,0.11282 2.15258,0.15257 2.98978,0.16538 4.54364,0.51795 7.81418,2.37564 0.77053,0.43718 1.86541,1.5859 1.25899,2.23077 -0.31539,0.33461 -1.27437,0.0526 -1.70002,0.0526 -0.39487,0 -0.94872,-0.65897 -1.36155,-0.76154 -2.08335,-0.52051 -3.62568,-0.55641 -6.18724,-0.69615 -0.79616,-0.0436 -1.57566,-0.0872 -2.31541,-0.16667 -3.34106,-0.35512 -7.28084,-1.29615 -11.21934,-2.85 L 99.865095,212.283 c -0.525646,-0.10128 -1.642324,0.0795 -1.855147,1.39744 0.09231,0.1141 0.574365,0.86282 0.90642,1.1 0.658981,0.42564 3.961582,1.25128 6.134682,1.78974 0.65,0.16154 1.29744,0.23462 2.19874,0.61411 0.47821,0.2 1.52309,0.38205 1.78976,0.4282 l 2.00515,0.41667 c 0.26795,0.0628 0.53077,0.12564 0.7859,0.16154 1.0436,0.14871 2.11413,0.26025 3.17952,0.37051 l 0.38206,0.0397 c 0.6577,0.0692 1.36283,0.11154 2.08207,0.15513 1.98848,0.1218 4.00645,0.86923 5.70647,1.49872 0.82821,0.30641 1.83079,1.05256 1.52309,1.88333 -0.23975,0.64616 -1.39232,0.60128 -2.04361,0.60128 -0.1859,0 -0.37308,-0.0308 -0.5577,-0.1 -1.25514,-0.4641 -3.06926,-0.57564 -4.82441,-0.68333 -0.76667,-0.0462 -1.51796,-0.0936 -2.21797,-0.16667 l -0.38077,-0.0385 c -1.10642,-0.11538 -2.21925,-0.23205 -3.30516,-0.38718 -0.34103,-0.0487 -0.6936,-0.1282 -1.04873,-0.21025 l -2.11541,-0.30898 -1.33463,0.29359 c -0.53334,0.27693 -1.36155,0.72052 -0.98078,1.69359 0.5077,0.30769 1.82566,0.78205 6.49494,1.02308 l 0.19616,0.0103 c 2.84233,0.15128 4.77184,0.65897 6.63853,1.14871 1.75643,0.46026 3.41542,0.89616 5.85262,1.01539 2.54746,0.12436 4.79492,0.58461 6.9693,1.02949 2.51798,0.51666 4.89364,1.00384 7.65906,0.97179 5.77954,-0.0692 10.99498,-2.54744 16.51555,-5.17436 3.15516,-1.5 6.41801,-3.05128 9.78728,-4.10256 5.09877,-1.59231 10.49498,-2.78718 15.71298,-3.94103 4.50261,-0.99615 9.15779,-2.02692 13.56296,-3.30128 1.6154,-0.46795 3.23337,-0.89359 4.85005,-1.31795 3.94235,-1.03846 7.66803,-2.01667 11.27447,-3.55897 2.21798,-0.95 4.3821,-2.1077 6.47315,-3.22564 2.559,-1.36795 5.20646,-2.78462 8.02059,-3.86154 8.47445,-3.24616 8.27957,-14.05 7.43213,-23.92308 -0.85001,-9.89872 -3.42952,-19.99359 -7.45777,-29.19359 -0.5,-1.13974 -1.04873,-2.29231 -1.60514,-3.45641 -1.7013,-3.56923 -3.46158,-7.26154 -4.08594,-11.10769 l -0.23718,-1.45641 c -0.81027,-4.9859 -1.57438,-9.69488 -2.30516,-14.59359 -1.56668,-10.49744 -6.11032,-20.039748 -10.63087,-28.916671 -3.08593,-6.06282 -9.63344,-7.646154 -16.56299,-9.321795 -2.88978,-0.698718 -5.87699,-1.421795 -8.51035,-2.502564 -1.85258,-0.760256 -3.92312,-1.338461 -6.11416,-1.95 -4.55261,-1.270513 -9.25907,-2.584615 -12.78475,-5.764103 -2.69362,-2.426923 -5.12313,-10.897436 -6.34494,-17.567949 l -0.0269,-0.758974 c -4.87569,4.753846 -11.40653,7.523077 -20.0002,7.523077 -7.96291,0 -14.2963,-2.657692 -19.18225,-7.235897 M 78.905836,143.57308 c -1.382065,2.62692 -3.34747,7.72307 -5.261592,10.00384 -0.980779,1.16923 -1.932071,2.30385 -2.78208,3.44359 l 0.108976,0.46154 c 2.850029,-1.15769 5.548775,-2.55769 8.142391,-4.22564 l -0.207695,-9.68333 z M 117.6088,48.861537 c -0.28847,2.267949 -0.81155,5.792308 -1.02053,6.788462 -0.48462,2.305128 -1.50386,4.8 -2.86797,7.026923 -2.41157,3.935897 -7.16803,6.967949 -11.50397,9.412821 -5.00005,2.821795 -10.477029,3.984615 -15.773237,5.108974 -4.676971,0.992308 -9.097529,1.930769 -13.100134,3.921795 -7.901363,3.928205 -11.537298,13.952564 -14.193735,21.270518 -1.594888,4.39743 -2.311562,8.87307 -3.070544,13.61282 -0.856419,5.35512 -1.742326,10.8923 -4.006451,16.2923 -0.941036,2.25 -1.97438,4.48334 -3.067981,6.85 -3.044903,6.59488 -6.194935,13.41282 -7.128278,20.23077 -0.2859,2.08334 -0.437184,4.14744 -0.584621,6.14488 -0.241028,3.24743 -0.488467,6.60641 -1.31027,10.07179 -0.176925,0.74359 -0.36667,1.49231 -0.560262,2.24615 -1.006421,3.95129 -2.047457,8.03847 -0.984625,11.77052 1.233346,4.33333 3.651319,7.45384 7.837259,10.12051 3.362855,2.14103 5.480826,0.98205 9.579585,-1.63205 0.580776,-0.37051 1.175654,-0.75 1.789762,-1.12308 3.662858,-2.22308 7.451359,-4.18077 11.118063,-6.07308 5.153899,-2.66153 10.484722,-5.4141 15.437337,-8.90897 3.552601,-2.50769 6.573144,-5.93205 9.493687,-9.24359 l 1.008985,-1.14231 c 1.217961,-1.37436 2.321818,-2.96666 3.488497,-4.65384 1.789762,-2.58462 3.638503,-5.2577 6.068013,-7.31026 4.59876,-3.8859 8.32316,-4.50513 13.48219,-5.00513 3.5026,-0.33974 7.23212,-1.51282 10.83985,-2.64615 0.87309,-0.27436 1.7372,-0.54744 2.58977,-0.80385 2.09233,-0.63205 4.26158,-1.54487 6.35904,-2.42949 1.99489,-0.83846 4.05773,-1.70769 6.10647,-2.36153 2.65516,-0.84616 5.29237,-2.11026 8.0847,-3.44872 2.12438,-1.01923 4.32056,-2.0718 6.54238,-2.93077 7.98341,-3.09103 8.53983,-4.71539 8.57316,-4.84616 0,0.001 -0.22692,-1.4141 -0.66795,-1.85384 l -1.78464,0.18846 c -1.45129,0.57051 -3.52183,1.30769 -5.5257,2.01667 -1.09744,0.39102 -2.16668,0.77051 -3.07951,1.10256 l -0.36796,0.13462 c -1.72437,0.63205 -3.50644,1.28461 -5.40646,1.7 -1.27694,0.28077 -2.75644,1.10384 -3.8385,1.70512 -0.24488,0.1359 -0.51283,0.20129 -0.77565,0.20129 -0.56283,0 -1.60515,0.0462 -1.89746,-0.48077 -0.43077,-0.77436 0.54873,-1.81282 1.32181,-2.24359 1.56668,-0.87052 2.90131,-1.96026 4.50518,-2.31282 1.68719,-0.36923 3.29105,-0.9577 4.98979,-1.57949 l 0.37052,-0.13462 c 0.92052,-0.33717 2.00002,-0.72051 3.109,-1.11282 1.97695,-0.70256 3.05388,-1.42692 4.45518,-1.97948 l 0.70129,-0.23205 c 2.24104,-1.11026 4.59363,-2.33077 6.61417,-3.7359 2.34105,-1.62821 2.99746,-2.91026 2.87695,-3.17051 -0.35257,-0.76667 -2.54362,-0.73975 -3.95389,-0.38334 l -2.909,0.91923 c -0.47949,0.22693 -1.06796,0.46539 -1.68592,0.71667 -1.06411,0.42949 -2.27053,0.91795 -2.93592,1.38718 -0.53719,0.37949 -1.2654,0.66282 -1.97182,0.9359 -0.42949,0.16666 -0.96411,0.37307 -1.18206,0.51153 -1.07053,0.67949 -2.23977,1.15129 -3.37055,1.60898 l -1.05129,0.43077 c -1.32822,0.55 -2.6449,1.09487 -3.95261,1.69231 -0.25513,0.11794 -0.54616,0.28718 -0.86411,0.46794 -0.65898,0.37821 -1.4795,0.84744 -2.34361,1.13462 -0.16795,0.0551 -0.33847,0.0808 -0.50642,0.0808 -0.67052,0 -1.29745,-0.42564 -1.52053,-1.09744 -0.27949,-0.83974 0.17565,-1.74615 1.01668,-2.02564 0.56026,-0.1859 1.19873,-0.55128 1.76284,-0.87436 0.40898,-0.23461 0.78847,-0.44871 1.11796,-0.6 1.3436,-0.61538 2.69746,-1.17564 4.06414,-1.74102 l 1.07566,-0.44103 c 0.99744,-0.40128 2.0295,-0.81923 2.85259,-1.34102 0.48462,-0.3077 1.09488,-0.54616 1.74104,-0.79616 0.45129,-0.17564 1.06796,-0.4141 1.28078,-0.5641 0.96925,-0.68462 2.36029,-1.24744 3.58594,-1.74231 0.55641,-0.22436 1.08463,-0.43718 1.5154,-0.64102 l 2.72054,-1.47052 1.6295,-1.12179 c 1.1295,-0.8 1.68207,-1.99231 1.63848,-2.94103 -0.005,-0.091 -0.17821,-0.37564 -0.25385,-0.50769 -0.52052,-0.89743 -1.74617,-1.14743 -3.32567,-0.73718 -0.15641,0.0397 -0.60001,0.16026 -0.76155,0.16026 l -0.96155,0.26666 -2.29874,0.82821 -0.25128,0.091 c -0.38719,0.14102 -0.7795,0.27948 -1.17566,0.41794 -1.35386,0.47436 -2.63207,0.92308 -3.77311,1.56026 -1.38463,0.7718 -2.82054,1.43077 -4.20902,2.06923 -0.90001,0.41282 -1.8013,0.82692 -2.68721,1.27051 -0.75129,0.37565 -1.0936,0.58975 -1.45514,0.81667 -0.40641,0.25513 -0.82693,0.51795 -1.7013,0.95641 -0.49872,0.24872 -1.13847,0.48333 -1.88079,0.75641 -0.85257,0.31282 -1.81925,0.66795 -2.809,1.12821 -0.21795,0.10128 -0.44744,0.14871 -0.67308,0.14871 -0.60514,0 -1.65258,-0.55128 -1.92438,-1.13589 -0.37308,-0.80257 0.87949,-1.26923 1.68207,-1.64231 1.10898,-0.51539 1.97822,-1.00385 2.8449,-1.3218 0.65129,-0.23974 0.98847,-0.63076 1.32693,-0.8 0.73591,-0.36923 1.07566,-0.58076 1.43463,-0.80641 0.39103,-0.24359 0.83206,-0.52051 1.71925,-0.96538 0.91796,-0.45897 1.8513,-0.88846 2.78465,-1.31667 1.3936,-0.64102 2.71028,-1.24615 3.98593,-1.95641 1.38207,-0.77179 2.85388,-1.28718 4.27569,-1.7859 0.38077,-0.13333 0.76026,-0.26666 1.13591,-0.40384 l 0.2641,-0.0949 1.71797,-0.69231 c 0.059,-0.21026 0.16282,-0.74615 0.25128,-1.57821 0.041,-0.4 0.0397,-0.91282 -0.20256,-1.07692 -1.24489,-0.83846 -6.00904,0.46154 -8.45906,1.75898 l -0.73847,0.3923 c -4.40518,2.3359 -8.20778,4.35385 -13.18732,6.05898 -0.86411,0.29615 -1.70386,0.64872 -2.59105,1.02051 -1.74232,0.72949 -3.54491,1.48333 -5.54236,1.78718 -1.27437,0.19231 -2.65516,0.32179 -3.98979,0.44744 -1.79873,0.16794 -3.66029,0.3423 -5.2039,0.66923 -0.95898,0.19743 -1.91797,-0.34744 -2.22566,-1.27949 -0.30513,-0.93205 0.13718,-1.94615 1.0295,-2.35256 3.7308,-1.7 8.3129,-4.55642 8.95137,-8.50898 0.65385,-4.03205 0.0898,-6.19487 -0.34231,-6.40769 -0.59231,0.0923 -1.60771,1.83846 -2.04233,2.58205 -0.38334,0.65897 -0.7436,1.27949 -1.13719,1.78974 -2.43849,3.16282 -5.54365,5.46154 -8.54881,7.68462 -0.9,0.66667 -1.80001,1.33333 -2.68079,2.02179 -3.76799,2.95129 -6.57186,6.13077 -9.08856,10.31282 -0.81667,1.35641 -1.49488,2.79488 -2.2154,4.31667 -1.34745,2.85385 -2.74106,5.80257 -5.10903,8.20385 -2.834645,2.87179 -5.832112,5.75128 -8.732141,8.53589 l -1.078216,1.0359 c -3.473113,3.33846 -7.059047,6.10257 -10.870624,8.35641 -4.555175,2.69231 -9.432148,4.6577 -14.828357,6.00257 -2.019252,0.50513 -3.659012,0.83461 -5.102617,1.1282 -3.033364,0.6141 -5.224412,1.05513 -8.778295,2.64231 -0.973086,0.4282 -2.108995,-0.004 -2.539769,-0.97308 -0.433338,-0.97051 0.0026,-2.10769 0.973087,-2.53974 3.942348,-1.75769 6.432117,-2.26154 9.582149,-2.89872 1.407707,-0.28461 3.000031,-0.60769 4.93723,-1.08974 0.364106,-0.091 0.726931,-0.1859 1.088473,-0.28205 l 0.624365,-1.11923 c 1.355142,-2.64872 3.350034,-5.02821 5.280823,-7.32949 2.485923,-2.9641 4.764152,-8.02308 5.723136,-11.21667 1.200012,-3.99487 0.59616,-5.51282 -0.116668,-9.51154 -0.576929,-3.23205 -1.171807,-6.57307 -0.775649,-10.1423 0.11154,-1.0077 0.978215,-1.76539 2.000021,-1.70898 1.01283,0.0461 1.815403,0.8718 1.834634,1.8859 0.02692,1.47308 0.194873,2.8141 0.476928,4.19872 0.193591,0.94743 0.407696,3.6282 0.428209,3.73974 l 1.361553,6.16923 c 0.01795,0.0923 0.398722,3.35128 0.400004,3.44615 0.06282,1.76924 0.658981,3.69231 0.68334,5.77949 l 0.330773,6.93462 c 1.63976,-1.27052 3.046185,-2.72564 4.624406,-4.24359 l 1.079498,-1.03846 c 2.882081,-2.76667 5.860316,-5.62821 8.659063,-8.46411 1.907712,-1.93461 3.102594,-4.4641 4.369274,-7.14487 0.72693,-1.54102 1.4795,-3.1359 2.39618,-4.65769 2.73208,-4.53974 5.91416,-8.14872 10.0142,-11.35769 0.90642,-0.71154 1.83592,-1.39744 2.76285,-2.08462 2.92055,-2.16282 5.67955,-4.20256 7.78854,-6.94231 0.24103,-0.31282 0.54232,-0.8282 0.86155,-1.37564 1.20001,-2.05897 3.43337,-5.893588 7.06931,-4.09487 3.16157,1.56154 3.06926,6.55513 2.43335,10.4718 -0.39103,2.41923 -1.70771,4.68718 -3.88081,6.73461 0.32308,-0.0397 0.63847,-0.082 0.94873,-0.13077 1.52694,-0.23077 3.03465,-0.86282 4.63082,-1.53077 0.9077,-0.37948 1.84361,-0.77307 2.8308,-1.11025 4.69235,-1.60641 8.37188,-3.5577 12.63346,-5.81795 l 0.73975,-0.39359 c 0.0795,-0.0423 8.41675,-4.24487 12.41167,-1.54744 0.8218,0.55513 2.15643,1.89487 1.87822,4.64103 1.86284,-0.0936 3.64747,0.35641 4.92313,1.29872 1.11155,0.82179 1.75643,1.96794 1.81412,3.22948 0.0641,1.39744 -0.35641,2.86154 -1.12822,4.13077 1.30002,0.40385 2.40644,1.19359 3.02055,2.52436 0.6577,1.42436 0.98847,4.35128 -4.17441,7.93974 -0.97693,0.67821 -2.00514,1.30898 -3.05387,1.90257 1.86796,1.51667 2.09233,3.05641 1.94489,4.09487 -0.39231,2.73462 -3.57696,5.02051 -10.99242,7.89103 -2.08079,0.80641 -4.20902,1.82692 -6.26801,2.81282 -2.78721,1.33589 -5.66929,2.71795 -8.57702,3.64487 -1.88591,0.60256 -3.77824,1.39872 -5.78339,2.24359 -2.18976,0.92179 -4.45389,1.87436 -6.73853,2.5641 -0.83719,0.25385 -1.68848,0.5218 -2.54746,0.79103 -3.79619,1.19487 -7.71931,2.42948 -11.62191,2.80641 -4.99364,0.48461 -7.74239,1.04743 -11.37192,4.1141 -2.03976,1.72436 -3.66542,4.07436 -5.38723,6.56154 -1.18078,1.70513 -2.400024,3.46923 -3.773115,5.01666 l -1.001293,1.13462 c -2.898747,3.2859 -5.889803,6.67821 -9.521892,9.37692 l -0.324362,0.24744 c 0.555134,5.97949 1.139755,11.79359 0.852573,17.93718 -0.173079,3.70385 -1.314116,7.24102 -2.419256,10.66282 -1.062831,3.29231 -2.065406,6.40385 -2.216689,9.5359 -0.164104,3.40641 -0.871804,7.54487 -1.621812,11.92564 -0.488466,2.85641 -0.9936,5.81025 -1.341039,8.56667 -0.123078,0.97179 -0.95001,1.68205 -1.905148,1.68205 -0.07949,0 -0.16154,-0.005 -0.24231,-0.0154 -1.052575,-0.13333 -1.800018,-1.09487 -1.667966,-2.14872 0.356414,-2.83974 0.870522,-5.83718 1.365399,-8.73333 0.729495,-4.26282 1.417963,-8.28846 1.571811,-11.46154 0.174361,-3.64231 1.306423,-7.14487 2.39746,-10.53333 1.07437,-3.32821 2.088483,-6.47051 2.237203,-9.66154 0.24231,-5.21026 0.344875,-10.17692 -0.06667,-15.31026 l -0.255131,-0.41666 c -4.248761,2.71025 -8.635985,5.17179 -12.895003,7.37179 -3.606447,1.86282 -7.335973,3.78846 -10.886009,5.94359 -0.588468,0.35769 -1.158986,0.7218 -1.715402,1.07821 -2.603873,1.66153 -5.266721,3.36025 -8.350086,3.36025 -1.648734,0 -3.419265,-0.48718 -5.365439,-1.72564 -5.041077,-3.20897 -7.960338,-7.00641 -9.473174,-12.31282 -1.344886,-4.72949 -0.174361,-9.32692 0.958984,-13.77308 0.185899,-0.73205 0.371799,-1.46153 0.543595,-2.18461 0.752572,-3.16667 0.978216,-6.22564 1.21668,-9.46667 0.151283,-2.05641 0.307695,-4.18205 0.610262,-6.38333 1.011549,-7.38846 4.283377,-14.4718 7.448794,-21.32308 1.076934,-2.33333 2.096176,-4.53718 3.012852,-6.72436 2.084636,-4.97436 2.896183,-10.04487 3.756448,-15.41282 0.752572,-4.70769 1.532067,-9.57692 3.250034,-14.31667 2.876952,-7.929483 6.818018,-18.789739 16.0976,-23.403842 4.441071,-2.207692 9.307788,-3.241026 14.014246,-4.239744 5.243644,-1.11282 10.194976,-2.164102 14.680925,-4.696153 3.90645,-2.203847 8.1629,-4.88718 10.1142,-8.073078 1.12437,-1.834615 1.99361,-3.952564 2.38464,-5.810256 0.30001,-1.429487 1.07053,-6.947436 1.31027,-9.896154"
         id="organsBody"
         style="fill:url(#linearGradient3620)" />
    </g>
  </g>
</svg>
